<svg width="139" height="142" viewBox="0 0 139 142" fill="none" xmlns="http://www.w3.org/2000/svg">
<g filter="url(#filter0_d_19_160)">
<rect x="8" y="8.23187" width="122.998" height="125" rx="25" fill="#D6EEF2"/>
</g>
<path d="M86.3075 84.3619H84.8542V79.9119C89.2432 76.5389 92.4787 71.8498 94.1036 66.507C95.7285 61.1641 95.6608 55.4375 93.91 50.1359C92.1593 44.8343 88.8139 40.2256 84.3463 36.9607C79.8788 33.6959 74.515 31.9398 69.0123 31.9406C63.5096 31.9414 58.1462 33.699 53.6796 36.9651C49.213 40.2312 45.8689 44.8409 44.1196 50.143C42.3702 55.4451 42.3041 61.1717 43.9305 66.5141C45.5569 71.8565 48.7937 76.5446 53.1836 79.9164V84.3609H51.7308C51.4777 84.361 51.235 84.4632 51.056 84.6451C50.877 84.827 50.7764 85.0736 50.7763 85.3309V91.5574C50.7763 91.8146 50.8769 92.0613 51.0559 92.2433C51.2348 92.4252 51.4776 92.5274 51.7308 92.5274H51.9812V97.7889C51.9813 98.0461 52.0819 98.2927 52.2609 98.4746C52.4399 98.6565 52.6825 98.7587 52.9356 98.7589H53.7578C54.6863 102.147 56.6809 105.133 59.4368 107.26C62.1928 109.388 65.5584 110.539 69.0191 110.539C72.4799 110.539 75.8455 109.388 78.6014 107.26C81.3574 105.133 83.352 102.147 84.2805 98.7589H85.1021C85.3552 98.7587 85.5979 98.6565 85.7769 98.4746C85.9559 98.2927 86.0565 98.0461 86.0566 97.7889V92.5284H86.3075C86.4328 92.5284 86.5569 92.5033 86.6727 92.4545C86.7885 92.4058 86.8937 92.3343 86.9823 92.2442C87.0709 92.1541 87.1411 92.0472 87.189 91.9295C87.2369 91.8118 87.2616 91.6857 87.2615 91.5584V85.3319C87.2615 85.0747 87.161 84.828 86.9821 84.6462C86.8032 84.4643 86.5606 84.362 86.3075 84.3619V84.3619ZM54.6999 78.6454C50.5398 75.5732 47.4433 71.2415 45.8543 66.271C44.2652 61.3006 44.2652 55.9465 45.8541 50.9761C47.443 46.0056 50.5394 41.6738 54.6995 38.6015C58.8595 35.5292 63.8698 33.8741 69.0123 33.8733C74.1548 33.8725 79.1656 35.526 83.3266 38.597C87.4877 41.668 90.5853 45.9988 92.1758 50.9688C93.7662 55.9388 93.7678 61.2928 92.1802 66.2638C90.5927 71.2347 87.4976 75.5674 83.3383 78.6409C83.2165 78.7307 83.1173 78.8486 83.0489 78.9848C82.9805 79.1211 82.9448 79.2719 82.9448 79.4249V84.3619H74.9518V74.4289L81.2577 67.9169C82.3128 68.2413 83.4486 68.1592 84.4478 67.6861C85.4471 67.213 86.2397 66.3822 86.6741 65.3525C87.1084 64.3229 87.1541 63.1666 86.8024 62.1049C86.4506 61.0431 85.7261 60.1504 84.7674 59.5975C83.8086 59.0445 82.683 58.8701 81.6057 59.1075C80.5284 59.345 79.575 59.9777 78.9279 60.8847C78.2807 61.7916 77.9853 62.9092 78.098 64.0236C78.2106 65.138 78.7236 66.1711 79.5387 66.9254L73.3155 73.3509C73.1396 73.5322 73.0411 73.7767 73.0414 74.0314V84.3619H64.9949V74.0319C64.995 73.7773 64.8965 73.5329 64.7208 73.3514L58.4971 66.9264C59.3025 66.1782 59.8085 65.1547 59.9184 64.0514C60.0284 62.9482 59.7346 61.8424 59.0932 60.9453C58.4518 60.0482 57.5078 59.4226 56.4413 59.188C55.3748 58.9534 54.2607 59.1262 53.3117 59.6735C52.3627 60.2207 51.6452 61.1041 51.2964 62.1548C50.9476 63.2055 50.9918 64.35 51.4206 65.3697C51.8495 66.3894 52.6328 67.2128 53.6212 67.6828C54.6095 68.1527 55.7335 68.2362 56.7786 67.9174L63.0864 74.4294V84.3619H55.0925V79.4319C55.0929 79.2786 55.0575 79.1274 54.9893 78.9907C54.921 78.8539 54.8219 78.7356 54.6999 78.6454V78.6454ZM79.9849 63.5789C79.9849 63.0669 80.1343 62.5665 80.4142 62.1408C80.6941 61.7151 81.0919 61.3833 81.5573 61.1874C82.0227 60.9915 82.5348 60.9402 83.0289 61.0401C83.523 61.14 83.9768 61.3865 84.333 61.7485C84.6892 62.1105 84.9318 62.5718 85.0301 63.0739C85.1284 63.576 85.0779 64.0965 84.8851 64.5694C84.6924 65.0424 84.3659 65.4467 83.947 65.7311C83.5282 66.0156 83.0357 66.1674 82.532 66.1674C81.8567 66.1666 81.2093 65.8936 80.7318 65.4083C80.2543 64.9231 79.9857 64.2651 79.9849 63.5789V63.5789ZM55.5063 66.1674C55.0025 66.1675 54.51 66.0157 54.0911 65.7314C53.6722 65.447 53.3457 65.0428 53.1528 64.5698C52.9599 64.0968 52.9094 63.5763 53.0077 63.0742C53.1059 62.572 53.3484 62.1108 53.7046 61.7487C54.0608 61.3866 54.5146 61.1401 55.0087 61.0401C55.5028 60.9402 56.015 60.9915 56.4804 61.1874C56.9459 61.3833 57.3437 61.715 57.6236 62.1407C57.9035 62.5664 58.0529 63.0669 58.0529 63.5789C58.0521 64.2651 57.7836 64.9229 57.3062 65.4082C56.8288 65.8934 56.1815 66.1664 55.5063 66.1674V66.1674ZM52.6852 86.3019H85.3536V90.5889H52.6852V86.3019ZM69.0164 108.604C66.06 108.619 63.1767 107.671 60.7887 105.899C58.4008 104.128 56.6337 101.626 55.7464 98.7599H82.2909C81.3762 101.61 79.6016 104.095 77.2188 105.862C74.836 107.629 71.9661 108.588 69.0164 108.604V108.604ZM84.1477 96.8199H53.8901V92.5284H84.1477V96.8199Z" fill="#141414"/>
<path d="M46.9811 38.0934C47.069 38.1865 47.1744 38.2608 47.2909 38.312C47.4075 38.3632 47.5329 38.3903 47.6599 38.3916C47.7869 38.3929 47.9128 38.3685 48.0304 38.3197C48.148 38.2709 48.2548 38.1988 48.3446 38.1075C48.4344 38.0163 48.5053 37.9077 48.5533 37.7883C48.6013 37.6688 48.6254 37.5408 48.6241 37.4117C48.6228 37.2827 48.5962 37.1552 48.5458 37.0367C48.4954 36.9183 48.4222 36.8112 48.3306 36.7219L42.7504 31.0504C42.6625 30.9573 42.5572 30.8829 42.4406 30.8317C42.324 30.7805 42.1986 30.7534 42.0716 30.7521C41.9446 30.7508 41.8187 30.7752 41.7011 30.824C41.5835 30.8728 41.4767 30.9449 41.3869 31.0362C41.2972 31.1274 41.2262 31.236 41.1782 31.3555C41.1302 31.4749 41.1061 31.603 41.1074 31.732C41.1087 31.861 41.1354 31.9885 41.1858 32.107C41.2361 32.2254 41.3093 32.3325 41.4009 32.4219L46.9811 38.0934Z" fill="#141414"/>
<path d="M95.6534 31.0504L90.0732 36.7219C89.9003 36.905 89.8048 37.1497 89.8074 37.4035C89.8099 37.6573 89.9103 37.9 90.0869 38.0795C90.2635 38.2589 90.5023 38.3609 90.752 38.3635C91.0018 38.3661 91.2426 38.2691 91.4228 38.0934L97.0015 32.4219C97.0931 32.3325 97.1662 32.2254 97.2166 32.107C97.267 31.9885 97.2936 31.861 97.2949 31.732C97.2962 31.603 97.2722 31.4749 97.2242 31.3555C97.1762 31.236 97.1052 31.1274 97.0154 31.0362C96.9256 30.9449 96.8188 30.8728 96.7013 30.824C96.5837 30.7752 96.4577 30.7508 96.3307 30.7521C96.2038 30.7534 96.0783 30.7805 95.9618 30.8317C95.8452 30.8829 95.7399 30.9573 95.6519 31.0504H95.6534Z" fill="#141414"/>
<path d="M46.9811 80.5154L41.4009 86.1864C41.2279 86.3695 41.1325 86.6142 41.1351 86.868C41.1376 87.1218 41.238 87.3645 41.4146 87.544C41.5912 87.7235 41.83 87.8255 42.0797 87.8281C42.3295 87.8307 42.5703 87.7337 42.7504 87.5579L48.3306 81.8869C48.5036 81.7038 48.599 81.4591 48.5965 81.2053C48.5939 80.9514 48.4936 80.7088 48.317 80.5293C48.1403 80.3498 47.9016 80.2478 47.6518 80.2452C47.4021 80.2426 47.1613 80.3396 46.9811 80.5154V80.5154Z" fill="#141414"/>
<path d="M91.4228 80.5154C91.2426 80.3396 91.0018 80.2426 90.752 80.2452C90.5023 80.2478 90.2635 80.3498 90.0869 80.5293C89.9103 80.7088 89.8099 80.9514 89.8074 81.2053C89.8048 81.4591 89.9003 81.7038 90.0732 81.8869L95.6534 87.5579C95.8336 87.7337 96.0744 87.8307 96.3241 87.8281C96.5739 87.8255 96.8127 87.7235 96.9893 87.544C97.1659 87.3645 97.2662 87.1218 97.2688 86.868C97.2713 86.6142 97.1759 86.3695 97.003 86.1864L91.4228 80.5154Z" fill="#141414"/>
<path d="M39.4192 58.7884H31.4622C31.335 58.7855 31.2086 58.8084 31.0903 58.8558C30.972 58.9032 30.8642 58.9742 30.7733 59.0645C30.6823 59.1549 30.6101 59.2627 30.5608 59.3819C30.5114 59.501 30.486 59.6289 30.486 59.7581C30.486 59.8874 30.5114 60.0153 30.5608 60.1344C30.6101 60.2535 30.6823 60.3614 30.7733 60.4518C30.8642 60.5421 30.972 60.6131 31.0903 60.6605C31.2086 60.7079 31.335 60.7308 31.4622 60.7279H39.4192C39.5463 60.7308 39.6727 60.7079 39.791 60.6605C39.9093 60.6131 40.0171 60.5421 40.108 60.4518C40.199 60.3614 40.2712 60.2535 40.3206 60.1344C40.3699 60.0153 40.3953 59.8874 40.3953 59.7581C40.3953 59.6289 40.3699 59.501 40.3206 59.3819C40.2712 59.2627 40.199 59.1549 40.108 59.0645C40.0171 58.9742 39.9093 58.9032 39.791 58.8558C39.6727 58.8084 39.5463 58.7855 39.4192 58.7884Z" fill="#141414"/>
<path d="M107.179 58.7884H99.2219C99.0947 58.7855 98.9683 58.8084 98.85 58.8558C98.7317 58.9032 98.6239 58.9742 98.533 59.0645C98.4421 59.1549 98.3698 59.2627 98.3205 59.3819C98.2711 59.501 98.2457 59.6289 98.2457 59.7581C98.2457 59.8874 98.2711 60.0153 98.3205 60.1344C98.3698 60.2535 98.4421 60.3614 98.533 60.4518C98.6239 60.5421 98.7317 60.6131 98.85 60.6605C98.9683 60.7079 99.0947 60.7308 99.2219 60.7279H107.179C107.306 60.7308 107.432 60.7079 107.551 60.6605C107.669 60.6131 107.777 60.5421 107.868 60.4518C107.959 60.3614 108.031 60.2535 108.08 60.1344C108.13 60.0153 108.155 59.8874 108.155 59.7581C108.155 59.6289 108.13 59.501 108.08 59.3819C108.031 59.2627 107.959 59.1549 107.868 59.0645C107.777 58.9742 107.669 58.9032 107.551 58.8558C107.432 58.8084 107.306 58.7855 107.179 58.7884V58.7884Z" fill="#141414"/>
<defs>
<filter id="filter0_d_19_160" x="0" y="0.231873" width="138.998" height="141" filterUnits="userSpaceOnUse" color-interpolation-filters="sRGB">
<feFlood flood-opacity="0" result="BackgroundImageFix"/>
<feColorMatrix in="SourceAlpha" type="matrix" values="0 0 0 0 0 0 0 0 0 0 0 0 0 0 0 0 0 0 127 0" result="hardAlpha"/>
<feMorphology radius="1" operator="dilate" in="SourceAlpha" result="effect1_dropShadow_19_160"/>
<feOffset/>
<feGaussianBlur stdDeviation="3.5"/>
<feComposite in2="hardAlpha" operator="out"/>
<feColorMatrix type="matrix" values="0 0 0 0 0.777979 0 0 0 0 0.875426 0 0 0 0 0.891667 0 0 0 1 0"/>
<feBlend mode="normal" in2="BackgroundImageFix" result="effect1_dropShadow_19_160"/>
<feBlend mode="normal" in="SourceGraphic" in2="effect1_dropShadow_19_160" result="shape"/>
</filter>
</defs>
</svg>
