<svg width="60" height="60" viewBox="0 0 60 60" fill="none" xmlns="http://www.w3.org/2000/svg">
<path d="M22.0001 42.0002C23.4341 42.0002 24.446 41.1042 24.8181 40.5753C25.132 40.1283 25.0251 39.5193 24.5831 39.1983C24.1391 38.8763 23.5182 38.9764 23.1902 39.4134C23.1721 39.4374 22.7412 40.0003 22.0001 40.0003C21.2711 40.0003 20.8421 39.4564 20.8112 39.4153C20.4911 38.9724 19.8741 38.8674 19.4252 39.1824C18.9732 39.5004 18.8642 40.1243 19.1822 40.5754C19.5541 41.1042 20.5661 42.0002 22.0001 42.0002Z" fill="black"/>
<path d="M21.0002 14.0007C17.1402 14.0007 14.0003 17.1407 14.0003 21.0005C14.0003 24.8604 17.1403 28.0004 21.0002 28.0004C24.8602 28.0004 28 24.8604 28 21.0005C28 17.1407 24.86 14.0007 21.0002 14.0007ZM21.0002 26.0005C18.2433 26.0005 16.0002 23.7576 16.0002 21.0005C16.0002 18.2436 18.2431 16.0006 21.0002 16.0006C23.7571 16.0006 26.0001 18.2435 26.0001 21.0005C26 23.7576 23.7571 26.0005 21.0002 26.0005Z" fill="black"/>
<path d="M31.19 39.4132C31.1719 39.4373 30.741 40.0002 29.9999 40.0002C29.2709 40.0002 28.8419 39.4562 28.811 39.4152C28.4909 38.9723 27.874 38.8673 27.425 39.1823C26.973 39.5003 26.8641 40.1242 27.182 40.5752C27.5539 41.1042 28.5659 42.0002 29.9999 42.0002C31.434 42.0002 32.4459 41.1042 32.8179 40.5752C33.1319 40.1283 33.0249 39.5193 32.583 39.1983C32.14 38.8763 31.518 38.9762 31.19 39.4132Z" fill="black"/>
<path d="M9.01029 24.8585C8.93224 25.4055 9.31227 25.9125 9.85824 25.9905C10.4033 26.0645 10.9113 25.6885 10.9903 25.1426C12.0162 17.9597 10.0142 12.8438 9.89633 12.5567C9.87828 12.5207 8.33436 9.31275 8.04631 3.03581L14.4003 7.8007C14.6623 7.99769 15.0033 8.05265 15.3152 7.94965C15.3742 7.92961 21.2902 6.00073 30 6.00073C38.7099 6.00073 44.6248 7.92973 44.6848 7.94965C44.9968 8.05265 45.3378 7.99769 45.5998 7.8007L51.9538 3.03581C51.6657 9.31275 50.1178 12.5276 50.0708 12.6286C49.9859 12.8437 47.9838 17.9596 49.0098 25.1425C49.0808 25.6405 49.5088 26.0005 49.9989 26.0005C50.0458 26.0005 50.0928 25.9974 50.1418 25.9905C50.6878 25.9125 51.0678 25.4055 50.9898 24.8585C50.0458 18.2546 51.8988 13.4477 51.8938 13.4477C51.9798 13.2756 53.9997 9.14377 53.9997 1.00088C53.9997 0.621897 53.7857 0.275847 53.4467 0.105927C53.1067 -0.0641095 52.7027 -0.0270787 52.3998 0.200965L44.8068 5.89585C43.1568 5.41281 37.674 4.00083 30 4.00083C22.3261 4.00083 16.8432 5.41281 15.1932 5.89573L7.60031 0.200848C7.29633 -0.0271959 6.89133 -0.0641095 6.55337 0.10581C6.21435 0.275847 6.00037 0.62178 6.00037 1.00076C6.00037 9.14365 8.01936 13.2756 8.07128 13.3725C8.09026 13.4197 9.96125 18.2006 9.01029 24.8585Z" fill="black"/>
<path d="M34.5549 28.1684C34.0939 27.8605 33.4739 27.9854 33.1679 28.4455L29.9999 33.1973L26.8319 28.4455C26.5249 27.9855 25.9039 27.8605 25.4449 28.1684C24.9859 28.4744 24.8619 29.0954 25.1679 29.5554L29.1678 35.5554C29.3528 35.8333 29.6647 36.0003 29.9998 36.0003C30.3338 36.0003 30.6458 35.8333 30.8318 35.5554L34.8317 29.5554C35.1379 29.0955 35.0139 28.4744 34.5549 28.1684Z" fill="black"/>
<path d="M21.0001 19.0006C19.8972 19.0006 19.0001 19.8976 19.0001 21.0007C19.0001 22.1037 19.8971 23.0007 21.0001 23.0007C22.1031 23.0007 23.0001 22.1037 23.0001 21.0007C23.0001 19.8976 22.1031 19.0006 21.0001 19.0006Z" fill="black"/>
<path d="M36.8179 45.5752C37.1319 45.1283 37.0249 44.5193 36.583 44.1983C36.1389 43.8763 35.518 43.9773 35.19 44.4133C35.1719 44.4373 34.741 45.0003 33.9999 45.0003C33.2709 45.0003 32.8419 44.4563 32.811 44.4153C32.4909 43.9723 31.873 43.8674 31.425 44.1823C30.973 44.4993 30.8641 45.1234 31.182 45.5753C31.5539 46.1043 32.5659 47.0003 33.9999 47.0003C35.434 47.0002 36.4459 46.1042 36.8179 45.5752Z" fill="black"/>
<path d="M45.9998 21.0005C45.9998 17.1406 42.8598 14.0007 38.9999 14.0007C35.1401 14.0007 32.0001 17.1407 32.0001 21.0005C32.0001 24.8604 35.1401 28.0004 38.9999 28.0004C42.8598 28.0004 45.9998 24.8605 45.9998 21.0005ZM38.9999 26.0005C36.243 26.0005 34 23.7576 34 21.0005C34 18.2436 36.2429 16.0006 38.9999 16.0006C41.7568 16.0006 43.9999 18.2435 43.9999 21.0005C43.9998 23.7576 41.7568 26.0005 38.9999 26.0005Z" fill="black"/>
<path d="M50.8037 28.0204C50.6737 28.0454 47.6087 28.6934 45.3638 32.1364C42.8218 36.0374 42.3678 41.7832 44.0149 49.2161C44.1338 49.7561 44.6709 50.096 45.2069 49.9771C45.7469 49.8571 46.0868 49.3231 45.9679 48.7841C44.4719 42.0322 44.8299 36.6723 47.0029 33.2854C48.1228 31.5403 49.4688 30.6884 50.3288 30.2924C52.3618 37.9754 51.0978 46.8522 47.1349 52.2131C45.9389 53.83 43.996 55.716 41.418 55.9531C40.7181 54.7891 39.455 54.0001 38.0001 54.0001C36.5261 54.0001 35.2501 54.8101 34.5571 56.0001H25.4432C24.7493 54.8101 23.4743 54.0001 22.0003 54.0001C20.5464 54.0001 19.2843 54.788 18.5834 55.9511C16.0014 55.7021 14.0555 53.8112 12.8575 52.1901C8.89647 46.8262 7.63555 37.9593 9.67048 30.2924C10.5204 30.6835 11.8474 31.5214 12.9605 33.2293C15.1654 36.6143 15.5334 41.9923 14.0244 48.7831C13.9044 49.322 14.2444 49.856 14.7834 49.976C15.3214 50.095 15.8564 49.7561 15.9764 49.217C17.6283 41.7841 17.1774 36.0382 14.6364 32.1373C12.3934 28.6933 9.32642 28.0454 9.19646 28.0203C8.6935 27.9213 8.19546 28.2153 8.04453 28.7063C5.44452 37.1572 6.76251 47.3021 11.2494 53.377C13.1914 56.0079 15.5104 57.5569 18.0084 57.916C18.0084 57.9449 18.0004 57.9709 18.0004 58C18.0004 59.1029 18.8973 60 20.0004 60H24.0003C25.1033 60 26.0003 59.103 26.0003 58H34.0003C34.0003 59.1029 34.8972 60 36.0003 60H40.0002C41.1031 60 42.0002 59.103 42.0002 58C42.0002 57.973 41.9932 57.9479 41.9922 57.9219C44.4872 57.571 46.8021 56.0269 48.7432 53.402C53.2321 47.3301 54.5531 37.1752 51.9562 28.7073C51.8047 28.2165 51.3046 27.9154 50.8037 28.0204ZM20.0001 58.0001C20.0001 56.8971 20.897 56.0001 22.0001 56.0001C23.103 56.0001 24.0001 56.897 24.001 58.0001H20.0001ZM35.9999 58.0001C35.9999 56.8971 36.8969 56.0001 37.9999 56.0001C39.103 56.0001 40 56.897 40.0009 58.0001H35.9999Z" fill="black"/>
<path d="M25.0001 47.0002C26.4341 47.0002 27.4461 46.1042 27.818 45.5752C28.1321 45.1283 28.025 44.5193 27.5831 44.1983C27.1391 43.8763 26.5181 43.9773 26.1901 44.4133C26.172 44.4373 25.7412 45.0003 25.0001 45.0003C24.2711 45.0003 23.842 44.4563 23.8111 44.4153C23.4911 43.9723 22.8741 43.8674 22.4251 44.1823C21.9732 44.4993 21.8642 45.1234 22.1821 45.5753C22.554 46.1042 23.5661 47.0002 25.0001 47.0002Z" fill="black"/>
<path d="M38.9999 19.0006C37.8969 19.0006 36.9999 19.8976 36.9999 21.0007C36.9999 22.1037 37.8968 23.0007 38.9999 23.0007C40.103 23.0007 40.9999 22.1037 40.9999 21.0007C40.9999 19.8976 40.1028 19.0006 38.9999 19.0006Z" fill="black"/>
<path d="M30 52.0002C31.434 52.0002 32.4459 51.1042 32.818 50.5752C33.1319 50.1282 33.0249 49.5192 32.583 49.1983C32.1401 48.8753 31.518 48.9763 31.19 49.4133C31.172 49.4373 30.7411 50.0003 30 50.0003C29.271 50.0003 28.842 49.4563 28.811 49.4153C28.491 48.9723 27.874 48.8673 27.4251 49.1823C26.9731 49.5004 26.8641 50.1233 27.182 50.5753C27.554 51.1042 28.566 52.0002 30 52.0002Z" fill="black"/>
<path d="M40.8178 40.5753C41.1317 40.1283 41.0247 39.5193 40.5828 39.1983C40.1399 38.8763 39.5189 38.9764 39.1898 39.4134C39.1718 39.4374 38.7409 40.0003 37.9998 40.0003C37.2708 40.0003 36.8418 39.4564 36.8109 39.4153C36.4908 38.9724 35.8729 38.8674 35.4249 39.1824C34.9729 39.5004 34.8639 40.1243 35.1819 40.5754C35.5538 41.1043 36.5658 42.0003 37.9998 42.0003C39.4338 42.0003 40.4458 41.1042 40.8178 40.5753Z" fill="black"/>
</svg>
