<svg width="374" height="576" viewBox="0 0 374 576" fill="none" xmlns="http://www.w3.org/2000/svg">
<path d="M330.637 571.232C326.641 555.773 321.045 521.208 330.637 506.617C342.628 488.38 361.916 509.223 365.565 442.524C369.214 375.825 373.385 289.846 365.565 264.313C357.746 238.78 362.959 247.118 344.713 224.19C326.467 201.262 338.457 198.657 330.116 154.886C321.775 111.115 323.86 142.38 314.998 102.256C306.136 62.1326 317.083 58.485 291.018 37.1206C264.952 15.7561 238.887 3.2501 225.333 4.29227C211.778 5.33444 180.5 7.93989 167.467 24.6146C154.434 41.2893 126.283 82.976 126.805 125.705C127.326 168.434 118.985 207.515 94.4834 205.952C69.9818 204.389 50.6933 214.289 49.1294 224.19C47.5654 234.09 21.4999 290.889 14.2015 351.855C6.90318 412.822 -1.95911 468.057 9.50973 479C20.9786 489.943 61.6408 497.238 61.6408 506.617C61.6408 515.997 60.0769 551.431 56.949 561.331C54.4467 569.252 49.9982 571.232 48.0867 571.232" stroke="#FBFBFB" stroke-width="8" stroke-linecap="round" stroke-dasharray="28 28"/>
</svg>
