<svg width="141" height="142" viewBox="0 0 141 142" fill="none" xmlns="http://www.w3.org/2000/svg">
<g filter="url(#filter0_d_19_163)">
<rect x="8" y="8.23187" width="125" height="125" rx="25" fill="#D6EEF2"/>
</g>
<path d="M44.4845 78.432V78.4325C44.4861 79.7715 45.017 81.0555 45.9616 82.0046C46.9061 82.9537 48.1875 83.4908 49.5265 83.4989V83.4989H49.5295H49.553L49.577 83.4989L49.5796 83.4989C50.581 83.4936 51.5584 83.1918 52.3884 82.6316C53.2185 82.0715 53.864 81.2779 54.2435 80.3512C54.6229 79.4245 54.7194 78.4062 54.5207 77.4247C54.322 76.4432 53.8371 75.5426 53.127 74.8365C52.4169 74.1304 51.5136 73.6504 50.5311 73.4572C49.5485 73.264 48.5307 73.3661 47.6061 73.7508C46.6816 74.1354 45.8917 74.7853 45.3361 75.6185C44.7805 76.4516 44.4842 77.4306 44.4845 78.432ZM49.5795 84.4624L49.5547 84.4597L49.5268 84.4599C47.9294 84.4685 46.4003 85.1085 45.273 86.2403C44.1457 87.3721 43.5118 88.9038 43.5095 90.5012V90.5019V93.7989V94.2989H44.0095H55.0965H55.5965V93.7989V90.5019V90.5009C55.5935 88.9041 54.9593 87.3732 53.8323 86.242C52.7052 85.1109 51.1766 84.4712 49.5798 84.4624H49.5795ZM61.203 94.3004H61.703V93.8004V70.4154V69.9154H61.203H37.903H37.403V70.4154V93.7989V94.2989H37.903H42.05H42.55V93.7989V90.5022C42.5507 89.2383 42.893 87.9982 43.5406 86.9129C44.1883 85.8276 45.1172 84.9375 46.2292 84.3368L46.9695 83.9369L46.2643 83.4778C45.1748 82.7687 44.3436 81.7264 43.8946 80.5065C43.4456 79.2865 43.4029 77.9541 43.7727 76.7079C44.1426 75.4616 44.9053 74.3683 45.9471 73.5908C46.9889 72.8132 48.2541 72.3932 49.554 72.3932C50.854 72.3932 52.1191 72.8132 53.1609 73.5908C54.2027 74.3683 54.9654 75.4617 55.3353 76.7079C55.7051 77.9541 55.6624 79.2865 55.2134 80.5065C54.7644 81.7265 53.9333 82.7687 52.8438 83.4778L52.1396 83.9362L52.8783 84.3365C53.4762 84.6605 54.0241 85.0694 54.5049 85.5504L54.5065 85.5519C55.1595 86.1995 55.6772 86.9704 56.0295 87.8199C56.3818 88.6694 56.5616 89.5805 56.5585 90.5002V90.5019V93.8004V94.3004H57.0585H61.203ZM62.6675 68.9529V95.2629H36.4395V68.9529H62.6675Z" fill="black" stroke="#141414"/>
<path d="M29.21 52.1264V52.1257C29.2115 50.9559 29.6773 49.8345 30.505 49.0079C31.3327 48.1812 32.4547 47.7169 33.6245 47.7169H58.404V47.2355C58.404 47.2354 58.404 47.2354 58.404 47.2354C58.4037 45.7914 58.688 44.3616 59.2405 43.0275C59.7931 41.6935 60.6031 40.4813 61.6243 39.4604C62.6455 38.4395 63.8578 37.6299 65.1921 37.0777C66.5262 36.5256 67.9561 36.2417 69.4 36.2424C69.4001 36.2424 69.4002 36.2424 69.4002 36.2424H72.77H72.7701C75.6854 36.2432 78.4811 37.4016 80.5425 39.463C82.604 41.5243 83.7625 44.3199 83.7635 47.2352V47.2354V47.7169H108.539H108.54V48.2169C109.356 48.2142 110.151 48.4691 110.814 48.9454L29.21 52.1264ZM29.21 52.1264V59.3039V59.8039H29.71H112.454H112.954V59.3039V52.1259V52.1246C112.952 51.423 112.784 50.7319 112.462 50.1084C112.141 49.4853 111.676 48.9475 111.105 48.5394L29.21 52.1264ZM111.666 47.7568L111.666 47.7574C112.361 48.255 112.928 48.9109 113.319 49.6707C113.71 50.4306 113.915 51.2726 113.917 52.1273V102.072C113.917 103.498 113.35 104.865 112.342 105.874C111.334 106.882 109.966 107.449 108.54 107.449H33.6268C32.201 107.448 30.8338 106.881 29.8256 105.873C28.8174 104.865 28.2507 103.497 28.25 102.072V52.1264C28.2509 50.7015 28.8175 49.3354 29.8253 48.328C30.833 47.3206 32.1996 46.7546 33.6245 46.7544C33.6245 46.7544 33.6246 46.7544 33.6246 46.7544H56.9795H57.4419L57.478 46.2934C57.713 43.2939 59.0713 40.4936 61.2814 38.4521C63.4916 36.4107 66.3907 35.2785 69.3994 35.2819H69.4L72.7673 35.2819C72.7674 35.2819 72.7674 35.2819 72.7675 35.2819C75.7748 35.283 78.6714 36.4169 80.8804 38.4576C83.0894 40.4983 84.4487 43.2962 84.6876 46.2941L84.7243 46.7544H85.186L108.54 46.7544L108.541 46.7544C109.662 46.7515 110.756 47.1022 111.666 47.7568ZM33.6241 106.486H33.6245H108.54C109.711 106.486 110.834 106.021 111.662 105.193C112.49 104.366 112.955 103.243 112.955 102.072V61.2659V60.7659H112.455H29.71H29.21V61.2659L29.21 102.072L29.21 102.072C29.211 103.243 29.6764 104.365 30.504 105.192C31.3316 106.02 32.4537 106.485 33.6241 106.486Z" fill="black" stroke="#141414"/>
<path d="M68.8509 50.5746C69.3728 50.9229 69.9669 51.1429 70.585 51.22V51.2536L71.0858 51.2529C72.151 51.2512 73.172 50.8272 73.925 50.0737C74.678 49.3203 75.1014 48.299 75.1025 47.2339V47.2337C75.1031 46.4384 74.8677 45.6608 74.4262 44.9992C73.9847 44.3377 73.3569 43.822 72.6222 43.5174C71.8875 43.2128 71.079 43.1329 70.2989 43.288C69.5189 43.443 68.8023 43.8259 68.2399 44.3883C67.6775 44.9507 67.2946 45.6672 67.1396 46.4473C66.9846 47.2274 67.0644 48.0359 67.369 48.7706C67.6737 49.5052 68.1894 50.133 68.8509 50.5746ZM68.316 43.0891C69.1356 42.5421 70.099 42.2504 71.0843 42.2509C72.4051 42.2537 73.6708 42.78 74.6043 43.7143C75.5378 44.6487 76.0629 45.915 76.0645 47.2357C76.064 48.221 75.7714 49.1841 75.2237 50.0031C74.6759 50.8223 73.8974 51.4606 72.9868 51.8374C72.0762 52.2141 71.0743 52.3124 70.1078 52.1197C69.1414 51.927 68.2538 51.4521 67.5572 50.7549C66.8607 50.0577 66.3866 49.1697 66.1948 48.2031C66.003 47.2364 66.1021 46.2346 66.4797 45.3243C66.8573 44.414 67.4963 43.6362 68.316 43.0891Z" fill="black" stroke="#141414"/>
<path d="M68.2395 70.8128V69.8503H104.811V70.8128H68.2395Z" fill="black" stroke="#141414"/>
<path d="M68.2395 82.2114V81.2489H88.9215V82.2114H68.2395Z" fill="black" stroke="#141414"/>
<path d="M68.2395 94.2104V93.2479H88.9215V94.2104H68.2395Z" fill="black" stroke="#141414"/>
<defs>
<filter id="filter0_d_19_163" x="0" y="0.231873" width="141" height="141" filterUnits="userSpaceOnUse" color-interpolation-filters="sRGB">
<feFlood flood-opacity="0" result="BackgroundImageFix"/>
<feColorMatrix in="SourceAlpha" type="matrix" values="0 0 0 0 0 0 0 0 0 0 0 0 0 0 0 0 0 0 127 0" result="hardAlpha"/>
<feMorphology radius="1" operator="dilate" in="SourceAlpha" result="effect1_dropShadow_19_163"/>
<feOffset/>
<feGaussianBlur stdDeviation="3.5"/>
<feComposite in2="hardAlpha" operator="out"/>
<feColorMatrix type="matrix" values="0 0 0 0 0.777979 0 0 0 0 0.875426 0 0 0 0 0.891667 0 0 0 1 0"/>
<feBlend mode="normal" in2="BackgroundImageFix" result="effect1_dropShadow_19_163"/>
<feBlend mode="normal" in="SourceGraphic" in2="effect1_dropShadow_19_163" result="shape"/>
</filter>
</defs>
</svg>
