<svg width="141" height="142" viewBox="0 0 141 142" fill="none" xmlns="http://www.w3.org/2000/svg">
<g filter="url(#filter0_d_19_165)">
<rect x="8" y="8.46375" width="125" height="125" rx="25" fill="#D6EEF2"/>
</g>
<path fill-rule="evenodd" clip-rule="evenodd" d="M52.8391 55.277C46.4835 55.3102 40.0346 57.0275 33.5535 60.3142V60.315C33.1351 60.5268 32.8813 60.9752 32.9089 61.4519L33.2348 67.0811L27.4306 68.5551H27.4314C26.8922 68.6913 26.5225 69.2004 26.55 69.7683L28.9679 120.332H28.9671C28.9979 120.966 29.5088 121.464 30.1291 121.464H112.012C112.632 121.464 113.144 120.964 113.172 120.329L115.451 69.765C115.476 69.212 115.125 68.7137 114.604 68.5643L108.776 66.8877L109.092 61.4527H109.091C109.119 60.9752 108.866 60.5268 108.447 60.315C95.6834 53.8403 83.033 53.4574 70.9995 60.0277C65.0712 56.794 58.9988 55.2445 52.8378 55.2768L52.8391 55.277ZM52.8334 57.6146C58.5857 57.5813 64.2381 59.047 69.8389 62.092V110.904C64.5651 107.235 59.6074 105.345 54.4901 105.393C49.2754 105.442 44.0072 107.486 38.1325 111.385L35.2766 62.1031C41.2599 59.1709 47.0965 57.6462 52.8334 57.6131V57.6146ZM89.1643 57.6146C94.9029 57.6478 100.743 59.1724 106.725 62.1046L103.858 111.384C97.9884 107.485 92.721 105.442 87.5063 105.393C82.3899 105.345 77.4322 107.234 72.1632 110.902V62.0905C77.7581 59.0455 83.4108 57.5805 89.1637 57.6146H89.1643ZM108.635 69.3193L113.087 70.5998L110.903 119.082H72.164V113.814C77.7014 109.681 82.5456 107.728 87.486 107.774C92.5653 107.822 97.8846 110.001 104.236 114.511C104.581 114.756 105.029 114.792 105.407 114.603C105.785 114.415 106.034 114.033 106.059 113.603L108.635 69.3195L108.635 69.3193ZM33.3761 69.4979L35.9319 113.601L35.9327 113.603C35.957 114.032 36.2068 114.414 36.5846 114.602C36.9617 114.79 37.4093 114.755 37.7547 114.51C44.1127 110 49.4312 107.821 54.5113 107.774C59.452 107.727 64.2961 109.68 69.8391 113.814V119.082H31.2373L28.9207 70.6297L33.3772 69.4979L33.3761 69.4979Z" fill="#141414"/>
<path fill-rule="evenodd" clip-rule="evenodd" d="M70.9443 21.465C70.7878 21.4724 70.6338 21.5123 70.4927 21.5829L21.8356 45.7496H21.8364C21.5883 45.8277 21.3734 45.9888 21.225 46.2064C21.2088 46.2296 21.1934 46.2529 21.1796 46.2769C21.0288 46.5211 20.9704 46.8134 21.0142 47.0991V55.2088C20.9436 55.6705 21.1439 56.1322 21.525 56.3888C21.5437 56.4013 21.5623 56.4129 21.581 56.4245C21.5891 56.4287 21.5972 56.4337 21.6053 56.4386C21.9945 56.6645 22.4761 56.6404 22.8435 56.3788L71.0003 32.4587L119.161 56.3831C119.536 56.648 120.027 56.6654 120.418 56.4263C120.437 56.4146 120.455 56.403 120.473 56.3906C120.481 56.3848 120.49 56.3789 120.499 56.3731C120.866 56.1132 121.055 55.6598 120.986 55.208V47.0966C121.025 46.8334 120.978 46.5652 120.851 46.3326C120.837 46.3069 120.823 46.282 120.807 46.2579C120.659 46.0138 120.429 45.8336 120.161 45.7497L71.5081 21.5829C71.3322 21.4966 71.1392 21.4559 70.9446 21.465L70.9443 21.465ZM71.0003 23.9769L118.661 47.6504V53.4866L71.5068 30.0638C71.1857 29.9044 70.8118 29.9044 70.4916 30.0638L23.3374 53.4844V47.6483L70.9981 23.9747L71.0003 23.9769Z" fill="#141414"/>
<defs>
<filter id="filter0_d_19_165" x="0" y="0.463745" width="141" height="141" filterUnits="userSpaceOnUse" color-interpolation-filters="sRGB">
<feFlood flood-opacity="0" result="BackgroundImageFix"/>
<feColorMatrix in="SourceAlpha" type="matrix" values="0 0 0 0 0 0 0 0 0 0 0 0 0 0 0 0 0 0 127 0" result="hardAlpha"/>
<feMorphology radius="1" operator="dilate" in="SourceAlpha" result="effect1_dropShadow_19_165"/>
<feOffset/>
<feGaussianBlur stdDeviation="3.5"/>
<feComposite in2="hardAlpha" operator="out"/>
<feColorMatrix type="matrix" values="0 0 0 0 0.777979 0 0 0 0 0.875426 0 0 0 0 0.891667 0 0 0 1 0"/>
<feBlend mode="normal" in2="BackgroundImageFix" result="effect1_dropShadow_19_165"/>
<feBlend mode="normal" in="SourceGraphic" in2="effect1_dropShadow_19_165" result="shape"/>
</filter>
</defs>
</svg>
