<svg width="141" height="142" viewBox="0 0 141 142" fill="none" xmlns="http://www.w3.org/2000/svg">
<g filter="url(#filter0_d_19_169)">
<rect x="8" y="8.23193" width="125" height="125" rx="25" fill="#D6EEF2"/>
</g>
<path d="M45.0445 59.2943L48.2846 60.7683L48.9115 64.2834C48.9889 64.717 49.3055 65.0706 49.7286 65.1927C49.8333 65.2227 49.9421 65.238 50.0485 65.238C50.3684 65.238 50.6794 65.1045 50.9018 64.8602L53.299 62.223L56.8235 62.7092C57.257 62.7715 57.6913 62.5773 57.9371 62.2109C58.1829 61.8444 58.2014 61.3711 57.9846 60.9877L56.2264 57.8828L57.7768 54.6679C57.9685 54.2699 57.9186 53.7991 57.6486 53.4504C57.3787 53.1025 56.9371 52.9391 56.5036 53.0273L53.0193 53.7473L50.453 51.2726C50.1363 50.9668 49.673 50.8706 49.2596 51.0186C48.8462 51.1691 48.5537 51.542 48.5054 51.9797L48.1105 55.5296L44.9744 57.2156C44.5876 57.4243 44.3508 57.8353 44.3653 58.277C44.3806 58.7179 44.6441 59.111 45.0445 59.2947L45.0445 59.2943ZM49.7383 57.2855C50.0735 57.1059 50.2983 56.7718 50.3402 56.3916L50.5424 54.5722L51.8591 55.8407C52.1331 56.1052 52.5174 56.2144 52.8921 56.14L54.6794 55.7711L53.8848 57.4206C53.7189 57.7636 53.7325 58.1673 53.9203 58.499L54.8228 60.0911L53.0146 59.842C52.6407 59.7853 52.2604 59.9269 52.0041 60.2084L50.7753 61.5611L50.453 59.7578C50.3861 59.3832 50.1388 59.0629 49.7923 58.9067L48.1307 58.1495L49.7383 57.2855Z" fill="black"/>
<path d="M88.3388 46.7273C86.4742 46.8511 84.3421 48.2782 84.0657 51.1146C83.6338 55.5528 88.0003 59.3525 88.1866 59.5112C88.3969 59.69 88.6628 59.7887 88.9359 59.7887C88.9569 59.7887 88.9787 59.7878 88.9996 59.7862C89.243 59.7733 95.0109 59.4125 97.3493 55.6191C98.8432 53.1954 98.0092 50.7619 96.6015 49.5282C95.5387 48.5971 93.8965 48.1327 92.2397 48.8123C91.338 47.2647 89.7498 46.6159 88.3389 46.7276L88.3388 46.7273ZM90.5466 50.7692C90.6377 51.1599 90.9229 51.4746 91.3025 51.6032C91.6804 51.7286 92.097 51.6542 92.4072 51.4002C93.3153 50.6494 94.3145 50.6025 95.0841 51.2764C95.8053 51.9082 96.1768 53.1193 95.3871 54.3999C94.0044 56.6441 90.5975 57.2679 89.3445 57.4232C88.4436 56.5357 86.1125 53.9656 86.3662 51.3404C86.5121 49.8405 87.5411 49.1051 88.4942 49.042C88.5426 49.0387 88.5909 49.0371 88.6385 49.0371C89.5828 49.0363 90.2911 49.6746 90.5466 50.7692L90.5466 50.7692Z" fill="black"/>
<path d="M33.6103 80.0481V103.567C33.6103 106.236 35.7738 108.408 38.4321 108.408H40.7068V110.639C40.7068 114.065 43.4827 116.852 46.8953 116.852H95.3426C98.7551 116.852 101.531 114.065 101.531 110.639V108.408H103.806C106.464 108.408 108.628 106.236 108.628 103.567L108.627 80.0481C108.627 77.3783 106.463 75.2071 103.805 75.2071H101.53V68.1534C103.84 66.1608 105.311 63.2135 105.311 59.9235V44.5915C105.311 37.0921 99.2345 30.9923 91.7657 30.9923H85.6756V28.372C87.1268 28.7741 88.3903 29.1988 89.4 29.6049C89.541 29.6615 89.6869 29.6874 89.8287 29.6874C90.2872 29.6874 90.7207 29.4124 90.902 28.9593C91.1397 28.3647 90.8512 27.6892 90.2582 27.4505C86.3372 25.8746 78.8797 24.0342 70.7678 24.0342C62.7728 24.0342 55.292 25.3189 50.7569 27.474C50.1807 27.7474 49.9342 28.4399 50.2073 29.0191C50.4813 29.6 51.1711 29.8475 51.7464 29.5725C52.7061 29.117 53.8189 28.7052 55.0452 28.3363V30.993L50.4699 30.9922C43.0019 30.9922 36.9246 37.0929 36.9246 44.5914V59.9235C36.9246 63.2137 38.3952 66.1608 40.7054 68.1533V75.207H38.4307C35.7732 75.207 33.6097 77.3783 33.6097 80.0481L33.6103 80.0481ZM38.4321 106.089C37.047 106.089 35.9204 104.957 35.9204 103.568V88.5331H40.706V106.09H38.4321V106.089ZM103.805 106.089H101.53L101.531 88.5331H106.317V103.568C106.317 104.958 105.19 106.089 103.805 106.089H103.805ZM103.805 77.5276C105.19 77.5276 106.317 78.6594 106.317 80.0493V86.214H101.531V77.5285L103.805 77.5276ZM57.3131 27.7381C61.1631 26.8506 65.8488 26.3547 70.7688 26.3547C75.4094 26.3547 79.8058 26.9784 83.3964 27.7995C83.3891 27.8505 83.3666 27.8958 83.3666 27.9492V30.9934H57.3565V27.9492C57.3565 27.8748 57.3275 27.8101 57.3138 27.7381L57.3131 27.7381ZM39.2344 59.926V44.594C39.2344 38.3753 44.2746 33.3141 50.4695 33.3141L91.7671 33.3133C97.9619 33.3133 103.002 38.3736 103.002 44.5931V59.9252C103.002 64.6326 99.1876 68.4609 94.4987 68.4609L76.3877 68.4617V64.1045C76.3877 63.4629 75.8704 62.9444 75.2322 62.9444H67.002C66.3646 62.9444 65.8465 63.4629 65.8465 64.1045V68.4617H47.7373C43.0499 68.4617 39.2337 64.632 39.2337 59.926H39.2344ZM74.0774 65.2645V73.9806H68.1573V65.2645H74.0774ZM47.7373 70.7811H65.8474V75.1391C65.8474 75.7807 66.3647 76.2992 67.0029 76.2992H75.2331C75.8705 76.2992 76.3886 75.7807 76.3886 75.1391V70.7811H94.4995C96.1941 70.7811 97.792 70.3766 99.2207 69.676V110.641C99.2207 112.789 97.481 114.535 95.3424 114.535H46.8951C44.7566 114.535 43.0168 112.788 43.0168 110.641V69.6781C44.4455 70.3778 46.0442 70.7823 47.738 70.7823L47.7373 70.7811ZM38.4313 77.5272H40.706V86.2127H35.9204V80.0481C35.9196 78.6599 37.0461 77.5272 38.4313 77.5272V77.5272Z" fill="black"/>
<path d="M52.283 42.1544H88.7989C89.4363 42.1544 89.9544 41.6359 89.9544 40.9943C89.9544 40.3528 89.4371 39.8342 88.7989 39.8342L52.283 39.835C51.6456 39.835 51.1274 40.3536 51.1274 40.9951C51.1274 41.6367 51.6456 42.1544 52.283 42.1544V42.1544Z" fill="black"/>
<path d="M54.6347 108.409H87.3117C89.3898 108.409 91.0811 106.711 91.0811 104.624V82.9304C91.0811 82.2888 90.5638 81.7703 89.9256 81.7703H52.0214C51.384 81.7703 50.8658 82.2888 50.8658 82.9304V104.624C50.8667 106.709 52.558 108.407 54.6346 108.407L54.6347 108.409ZM87.3117 106.089H54.6347C53.8305 106.089 53.1754 105.433 53.1754 104.624L53.1762 90.7532H88.7701V104.625C88.7709 105.432 88.1174 106.089 87.3132 106.089L87.3117 106.089ZM88.7694 84.091V88.4345H53.1755V84.091H88.7694Z" fill="black"/>
<path d="M73.7176 94.798H68.5195C67.8822 94.798 67.364 95.3165 67.364 95.9581C67.364 96.5996 67.8813 97.1182 68.5195 97.1182H73.7176C74.355 97.1182 74.8731 96.5996 74.8731 95.9581C74.8723 95.3157 74.355 94.798 73.7176 94.798Z" fill="black"/>
<defs>
<filter id="filter0_d_19_169" x="0" y="0.231934" width="141" height="141" filterUnits="userSpaceOnUse" color-interpolation-filters="sRGB">
<feFlood flood-opacity="0" result="BackgroundImageFix"/>
<feColorMatrix in="SourceAlpha" type="matrix" values="0 0 0 0 0 0 0 0 0 0 0 0 0 0 0 0 0 0 127 0" result="hardAlpha"/>
<feMorphology radius="1" operator="dilate" in="SourceAlpha" result="effect1_dropShadow_19_169"/>
<feOffset/>
<feGaussianBlur stdDeviation="3.5"/>
<feComposite in2="hardAlpha" operator="out"/>
<feColorMatrix type="matrix" values="0 0 0 0 0.777979 0 0 0 0 0.875426 0 0 0 0 0.891667 0 0 0 1 0"/>
<feBlend mode="normal" in2="BackgroundImageFix" result="effect1_dropShadow_19_169"/>
<feBlend mode="normal" in="SourceGraphic" in2="effect1_dropShadow_19_169" result="shape"/>
</filter>
</defs>
</svg>
