<svg width="141" height="142" viewBox="0 0 141 142" fill="none" xmlns="http://www.w3.org/2000/svg">
<g filter="url(#filter0_d_19_166)">
<rect x="8" y="8.23187" width="125" height="125" rx="25" fill="#D6EEF2"/>
</g>
<path d="M59.2647 91.1804L50.2059 110.611L47.3603 102.794L39.5441 105.64L49.0662 85.2024C48.492 84.5522 48.0265 83.8135 47.6875 83.0149C47.5886 82.775 47.5039 82.5295 47.4339 82.2796L47.2133 82.2061L33.8677 110.831L45.5919 106.563L49.8677 118.291L62.125 92.0039C61.1353 91.8762 60.1708 91.5985 59.2647 91.1804Z" fill="#141414"/>
<path d="M94.7868 82.2282L94.5662 82.3017C94.4963 82.5517 94.4116 82.7972 94.3125 83.037C93.9736 83.8356 93.508 84.5742 92.9338 85.2245L102.46 105.651L94.6434 102.805L91.7978 110.622L82.739 91.1914C81.8328 91.6095 80.8684 91.8872 79.8787 92.015L92.1323 118.291L96.4007 106.566L108.132 110.831L94.7868 82.2282Z" fill="#141414"/>
<path d="M105.559 58.7319C105.611 56.8584 105.034 55.0215 103.919 53.5149C104.282 52.4839 104.419 51.3867 104.32 50.298C104.114 47.6767 102.787 44.9892 100.699 43.5922C100.717 42.9499 100.649 42.3081 100.496 41.6841C99.8345 38.9341 97.5 35.9966 94.5662 35.1657C94.496 34.9159 94.4113 34.6703 94.3125 34.4304C93.0551 31.401 89.5698 29.026 86.3713 29.026H86.1286C84.6581 26.8642 81.6801 25.3752 78.7463 25.3752C77.8835 25.3677 77.026 25.512 76.2132 25.8017C74.684 24.7335 72.8635 24.1606 70.9981 24.1606C69.1327 24.1606 67.3123 24.7335 65.7831 25.8017C64.9703 25.512 64.1128 25.3677 63.25 25.3752C60.3088 25.3752 57.3235 26.8642 55.8676 29.026H55.625C52.4264 29.026 48.9411 31.401 47.6838 34.4304C47.5849 34.6703 47.5002 34.9158 47.4301 35.1657C44.4889 35.9966 42.1617 38.9304 41.5 41.6841C41.3468 42.3081 41.2788 42.9499 41.2978 43.5922C39.2095 44.9892 37.8823 47.6767 37.6764 50.298C37.5771 51.3867 37.7138 52.4839 38.0772 53.5149C36.9633 55.0218 36.3872 56.8588 36.4411 58.7319C36.3894 60.6058 36.9681 62.4429 38.0845 63.9488C37.7211 64.9798 37.5844 66.077 37.6838 67.1657C37.8897 69.787 39.2169 72.4745 41.3051 73.8716C41.2863 74.5138 41.3543 75.1556 41.5073 75.7797C42.1691 78.5297 44.5037 81.4672 47.4375 82.298C47.5075 82.5479 47.5922 82.7934 47.6911 83.0333C48.9448 86.0627 52.4338 88.4377 55.6323 88.4377H55.875C57.3456 90.5995 60.3235 92.0885 63.2573 92.0885C64.1202 92.0961 64.9776 91.9517 65.7904 91.662C67.3197 92.7303 69.1401 93.3031 71.0055 93.3031C72.8709 93.3031 74.6913 92.7303 76.2206 91.662C77.0334 91.9517 77.8908 92.0961 78.7536 92.0885C81.6948 92.0885 84.6801 90.5995 86.136 88.4377H86.3787C89.5772 88.4377 93.0625 86.0627 94.3198 83.0333C94.4189 82.7935 94.5036 82.548 94.5735 82.298C97.5147 81.4672 99.8419 78.5333 100.504 75.7797C100.657 75.1556 100.725 74.5138 100.706 73.8716C102.794 72.4745 104.121 69.787 104.327 67.1657C104.426 66.077 104.29 64.9798 103.926 63.9488C105.039 62.4414 105.614 60.6045 105.559 58.7319ZM98.9706 63.1436C103.835 63.9157 100.621 73.8054 96.2316 71.5701C100.621 73.8054 94.5073 82.2319 91.0257 78.7392C94.5073 82.2208 86.0956 88.3348 83.8566 83.9451C86.0919 88.3348 76.2022 91.548 75.4301 86.6841C76.2022 91.548 65.8014 91.548 66.5698 86.6841C65.7978 91.548 55.9081 88.3348 58.1434 83.9451C55.9081 88.3348 47.4816 82.2208 50.9742 78.7392C47.4926 82.2208 41.3787 73.8091 45.7684 71.5701C41.3787 73.8054 38.1654 63.9157 43.0294 63.1436C38.1654 63.9157 38.1654 53.5149 43.0294 54.2833C38.1654 53.5113 41.3787 43.6216 45.7684 45.8569C41.3787 43.6216 47.4926 35.1951 50.9742 38.6877C47.4926 35.2061 55.9044 29.0922 58.1434 33.4819C55.9081 29.1105 65.8014 25.8973 66.5882 30.7613C65.8161 25.8973 76.2169 25.8973 75.4485 30.7613C76.2206 25.8973 86.1103 29.1105 83.875 33.5002C86.1103 29.1105 94.5367 35.2245 91.0441 38.7061C94.5257 35.2245 100.64 43.6363 96.25 45.8752C100.64 43.6399 103.853 53.5297 98.9889 54.3017C103.835 53.5333 103.835 63.9304 98.9706 63.1436Z" fill="#141414"/>
<path d="M71 36.673C66.6372 36.673 62.3723 37.9668 58.7448 40.3906C55.1172 42.8145 52.2899 46.2596 50.6203 50.2903C48.9507 54.321 48.5139 58.7563 49.365 63.0353C50.2162 67.3143 52.3171 71.2448 55.4021 74.3298C58.487 77.4148 62.4175 79.5157 66.6965 80.3668C70.9755 81.218 75.4108 80.7811 79.4415 79.1116C83.4723 77.442 86.9174 74.6146 89.3412 70.9871C91.7651 67.3595 93.0588 63.0947 93.0588 58.7319C93.0588 52.8815 90.7348 47.2707 86.5979 43.1339C82.4611 38.9971 76.8504 36.673 71 36.673ZM71 77.8495C67.2189 77.8495 63.5227 76.7283 60.3788 74.6276C57.2349 72.5269 54.7846 69.5412 53.3376 66.0479C51.8906 62.5546 51.512 58.7106 52.2497 55.0022C52.9873 51.2937 54.8081 47.8873 57.4818 45.2136C60.1554 42.54 63.5619 40.7192 67.2703 39.9816C70.9788 39.2439 74.8227 39.6225 78.316 41.0695C81.8093 42.5164 84.7951 44.9668 86.8957 48.1107C88.9964 51.2545 90.1176 54.9507 90.1176 58.7319C90.1118 63.8004 88.0958 68.6596 84.5118 72.2436C80.9278 75.8276 76.0685 77.8437 71 77.8495Z" fill="#141414"/>
<path d="M85.386 53.89L75.1765 52.787L70.3125 43.7429L66.0919 53.0848L55.9853 54.9231L63.5846 61.8312L62.2022 72.0076L71.1213 66.9157L80.3713 71.3753L78.2868 61.3054L85.386 53.89ZM71 63.5848L65.9154 66.4892L66.7022 60.6841L62.375 56.7466L68.136 55.7025L70.5441 50.3642L73.3162 55.5113L79.1434 56.1584L75.0993 60.39L76.2904 66.1253L71 63.5848Z" fill="#141414"/>
<defs>
<filter id="filter0_d_19_166" x="0" y="0.231873" width="141" height="141" filterUnits="userSpaceOnUse" color-interpolation-filters="sRGB">
<feFlood flood-opacity="0" result="BackgroundImageFix"/>
<feColorMatrix in="SourceAlpha" type="matrix" values="0 0 0 0 0 0 0 0 0 0 0 0 0 0 0 0 0 0 127 0" result="hardAlpha"/>
<feMorphology radius="1" operator="dilate" in="SourceAlpha" result="effect1_dropShadow_19_166"/>
<feOffset/>
<feGaussianBlur stdDeviation="3.5"/>
<feComposite in2="hardAlpha" operator="out"/>
<feColorMatrix type="matrix" values="0 0 0 0 0.777979 0 0 0 0 0.875426 0 0 0 0 0.891667 0 0 0 1 0"/>
<feBlend mode="normal" in2="BackgroundImageFix" result="effect1_dropShadow_19_166"/>
<feBlend mode="normal" in="SourceGraphic" in2="effect1_dropShadow_19_166" result="shape"/>
</filter>
</defs>
</svg>
