<svg width="141" height="142" viewBox="0 0 141 142" fill="none" xmlns="http://www.w3.org/2000/svg">
<g filter="url(#filter0_d_19_168)">
<rect x="8" y="8.23193" width="125" height="125" rx="25" fill="#D6EEF2"/>
</g>
<path d="M94.3538 107.516C94.3733 107.555 94.3951 107.593 94.4198 107.629C94.819 108.218 95.4262 108.555 96.0884 108.555C96.7504 108.555 97.3577 108.218 97.7569 107.63C97.7817 107.594 97.8035 107.556 97.8229 107.517L104.667 93.6941C104.737 93.5545 104.773 93.3965 104.773 93.2372V39.7868C104.773 36.0717 102.067 33.0498 98.7397 33.0498H93.4359C90.1089 33.0498 87.4028 36.0717 87.4028 39.7868V93.2372C87.4028 93.3965 87.4393 93.5545 87.5083 93.6941L94.3538 107.516ZM98.8032 101.634H93.3728L89.4774 93.7679H102.698L98.8032 101.634ZM94.2924 91.8812V49.2526H97.8847V91.8812H94.2924ZM92.6015 91.8812H89.0942V49.2526H92.6015V91.8812ZM99.5749 91.8812V49.2526H103.082V91.8812H99.5749ZM103.082 47.365H89.0928V45.0838H103.082V47.365ZM96.38 106.529C96.2786 106.649 96.156 106.668 96.0882 106.668C96.0204 106.668 95.8972 106.649 95.7958 106.529L94.3071 103.523H97.8681L96.38 106.529ZM93.4357 34.9386H98.7395C101.134 34.9386 103.082 37.1138 103.082 39.788V43.197H89.0928V39.788C89.0928 37.1145 91.0414 34.9386 93.4356 34.9386H93.4357Z" fill="#141414"/>
<path d="M38.0011 108.555H83.8536C84.3211 108.555 84.6991 108.133 84.6991 107.61L84.6985 46.9028C84.6985 46.7771 84.6755 46.6553 84.6336 46.5414C84.6077 46.4696 84.5617 46.4123 84.521 46.3505C84.4974 46.3156 84.4845 46.2728 84.4567 46.2418L84.4497 46.2339L73.1157 33.3314C72.9566 33.151 72.7396 33.0483 72.512 33.0483H38.0004C37.5329 33.0483 37.155 33.4703 37.155 33.9924V107.61C37.155 108.132 37.5329 108.554 38.0004 108.554L38.0011 108.555ZM73.358 36.302L81.8413 45.9581H73.358V36.302ZM38.8463 34.9359H71.6675V46.9028C71.6675 47.4249 72.0455 47.8469 72.513 47.8469H83.0085V106.667H38.8464L38.8463 34.9359Z" fill="#141414"/>
<defs>
<filter id="filter0_d_19_168" x="0" y="0.231934" width="141" height="141" filterUnits="userSpaceOnUse" color-interpolation-filters="sRGB">
<feFlood flood-opacity="0" result="BackgroundImageFix"/>
<feColorMatrix in="SourceAlpha" type="matrix" values="0 0 0 0 0 0 0 0 0 0 0 0 0 0 0 0 0 0 127 0" result="hardAlpha"/>
<feMorphology radius="1" operator="dilate" in="SourceAlpha" result="effect1_dropShadow_19_168"/>
<feOffset/>
<feGaussianBlur stdDeviation="3.5"/>
<feComposite in2="hardAlpha" operator="out"/>
<feColorMatrix type="matrix" values="0 0 0 0 0.777979 0 0 0 0 0.875426 0 0 0 0 0.891667 0 0 0 1 0"/>
<feBlend mode="normal" in2="BackgroundImageFix" result="effect1_dropShadow_19_168"/>
<feBlend mode="normal" in="SourceGraphic" in2="effect1_dropShadow_19_168" result="shape"/>
</filter>
</defs>
</svg>
