<svg width="24" height="25" viewBox="0 0 24 25" fill="none" xmlns="http://www.w3.org/2000/svg">
<g clip-path="url(#clip0_29_142)">
<path d="M18 3.23193H8C5.23858 3.23193 3 5.47051 3 8.23193V18.2319C3 20.9934 5.23858 23.2319 8 23.2319H18C20.7614 23.2319 23 20.9934 23 18.2319V8.23193C23 5.47051 20.7614 3.23193 18 3.23193Z" stroke="black" stroke-width="2" stroke-linecap="round" stroke-linejoin="round"/>
<path d="M17 12.6452C17.1234 13.4774 16.9813 14.3274 16.5938 15.0742C16.2063 15.821 15.5932 16.4266 14.8416 16.8049C14.0901 17.1831 13.2385 17.3148 12.4078 17.1811C11.5771 17.0475 10.8098 16.6553 10.2149 16.0604C9.61993 15.4654 9.22774 14.6981 9.09408 13.8674C8.96042 13.0368 9.09208 12.1851 9.47034 11.4336C9.8486 10.6821 10.4542 10.0689 11.201 9.68145C11.9478 9.29395 12.7978 9.15179 13.63 9.2752C14.4789 9.40109 15.2649 9.79667 15.8717 10.4035C16.4785 11.0104 16.8741 11.7963 17 12.6452Z" stroke="black" stroke-width="2" stroke-linecap="round" stroke-linejoin="round"/>
<path d="M17.5 6.73193H17.5104" stroke="black" stroke-width="2" stroke-linecap="round" stroke-linejoin="round"/>
</g>
<defs>
<clipPath id="clip0_29_142">
<rect width="24" height="24" fill="white" transform="translate(0 0.231934)"/>
</clipPath>
</defs>
</svg>
