<svg width="24" height="25" viewBox="0 0 24 25" fill="none" xmlns="http://www.w3.org/2000/svg">
<g clip-path="url(#clip0_29_151)">
<path d="M16.05 6.23193C17.0267 6.4225 17.9244 6.90019 18.6281 7.60387C19.3317 8.30755 19.8094 9.2052 20 10.1819M16.05 2.23193C18.0793 2.45737 19.9716 3.36611 21.4162 4.80894C22.8609 6.25177 23.772 8.14294 24 10.1719M23 18.1519V21.1519C23.0011 21.4304 22.9441 21.7061 22.8325 21.9613C22.7209 22.2165 22.5573 22.4455 22.3521 22.6338C22.1468 22.8221 21.9046 22.9654 21.6407 23.0546C21.3769 23.1439 21.0974 23.177 20.82 23.1519C17.7428 22.8176 14.787 21.7661 12.19 20.0819C9.77382 18.5466 7.72533 16.4981 6.18999 14.0819C4.49997 11.4731 3.44824 8.50293 3.11999 5.41193C3.095 5.1354 3.12787 4.85669 3.21649 4.59356C3.30512 4.33042 3.44756 4.08862 3.63476 3.88355C3.82196 3.67849 4.0498 3.51464 4.30379 3.40246C4.55777 3.29027 4.83233 3.2322 5.10999 3.23193H8.10999C8.5953 3.22716 9.06579 3.39901 9.43376 3.71547C9.80173 4.03192 10.0421 4.47138 10.11 4.95193C10.2366 5.912 10.4714 6.85466 10.81 7.76193C10.9445 8.11986 10.9737 8.50885 10.8939 8.88281C10.8141 9.25678 10.6289 9.60004 10.36 9.87193L9.08999 11.1419C10.5135 13.6455 12.5864 15.7184 15.09 17.1419L16.36 15.8719C16.6319 15.6031 16.9751 15.4178 17.3491 15.338C17.7231 15.2583 18.1121 15.2874 18.47 15.4219C19.3773 15.7605 20.3199 15.9953 21.28 16.1219C21.7658 16.1905 22.2094 16.4351 22.5265 16.8094C22.8437 17.1837 23.0122 17.6615 23 18.1519Z" stroke="black" stroke-width="2" stroke-linecap="round" stroke-linejoin="round"/>
</g>
<defs>
<clipPath id="clip0_29_151">
<rect width="24" height="24" fill="white" transform="translate(0 0.231934)"/>
</clipPath>
</defs>
</svg>
